<?xml version="1.0" standalone="no"?>
<!DOCTYPE svg PUBLIC "-//W3C//DTD SVG 20010904//EN"
 "http://www.w3.org/TR/2001/REC-SVG-20010904/DTD/svg10.dtd">
<svg version="1.0" xmlns="http://www.w3.org/2000/svg"
 width="200.000000pt" height="200.000000pt" viewBox="0 0 200.000000 200.000000"
 preserveAspectRatio="xMidYMid meet">
<metadata>
Created by potrace 1.14, written by Peter Selinger 2001-2017
</metadata>
<g transform="translate(0.000000,200.000000) scale(0.100000,-0.100000)"
fill="#000000" stroke="none">
<path d="M1379 1696 c-2 -3 -18 -7 -34 -10 -20 -4 -49 -26 -86 -65 -45 -48
-61 -59 -83 -57 -19 3 -26 -1 -24 -13 2 -9 -3 -15 -11 -13 -11 2 -12 0 -3 -11
8 -9 8 -17 1 -24 -7 -7 -5 -15 5 -26 34 -33 13 -60 -35 -47 -18 6 -26 4 -27
-6 -1 -8 -3 -20 -4 -27 -1 -8 -7 -14 -15 -14 -17 0 -17 14 0 20 9 4 9 6 -1 6
-10 1 -8 10 7 34 20 33 20 33 1 65 -14 23 -16 30 -5 25 8 -3 15 -9 15 -14 0
-5 5 -9 10 -9 6 0 10 9 10 20 0 11 3 19 8 19 21 -4 35 2 27 10 -10 9 -70 20
-137 25 -40 2 -123 -38 -112 -56 3 -5 12 -2 18 8 8 11 18 14 26 9 9 -5 11 -4
6 3 -4 7 -4 12 1 12 14 0 29 -14 36 -32 3 -10 13 -18 21 -18 9 0 20 -10 27
-21 14 -28 19 -70 7 -62 -6 3 -7 -7 -3 -27 4 -18 8 -38 9 -44 1 -6 5 -17 10
-25 11 -17 -15 -35 -26 -18 -5 7 -6 -5 -4 -25 3 -27 0 -40 -11 -46 -13 -8 -13
-12 -2 -30 8 -12 21 -20 29 -17 23 6 63 -32 63 -60 0 -17 5 -25 17 -25 10 0
20 -4 22 -10 2 -5 13 -11 24 -13 12 -1 29 -11 38 -20 19 -18 41 -23 31 -7 -3
6 0 10 9 10 8 0 16 -4 18 -10 4 -12 87 -19 94 -8 3 4 -2 8 -10 8 -17 0 -21 12
-9 24 10 9 33 78 33 98 0 9 16 32 35 51 33 33 78 116 56 103 -6 -4 -10 3 -9
16 1 38 -2 49 -11 44 -10 -7 -9 -37 4 -75 5 -16 4 -21 -4 -17 -6 4 -11 16 -11
27 0 12 -5 19 -10 17 -11 -3 -80 -154 -74 -161 2 -2 -4 -11 -14 -20 -49 -46
-58 -55 -69 -73 -10 -16 -13 -17 -22 -4 -7 10 -7 16 -1 18 6 2 15 13 21 24 8
15 8 19 0 14 -6 -4 -11 -2 -11 4 0 6 -5 8 -10 5 -6 -4 -10 -12 -9 -18 3 -18
-12 -47 -23 -47 -7 0 -6 5 1 13 6 8 8 17 4 20 -11 12 30 48 50 43 15 -4 16 -2
6 10 -9 11 -9 14 0 14 7 0 9 4 6 10 -3 5 2 21 11 35 9 14 14 28 11 31 -2 3
-15 -12 -28 -33 -25 -41 -44 -63 -54 -63 -3 0 -3 6 2 13 4 6 8 17 8 22 4 41
45 91 69 82 7 -3 19 0 25 6 8 8 11 1 11 -26 0 -22 -5 -37 -12 -37 -6 0 -8 -3
-5 -7 4 -3 3 -11 -2 -17 -13 -17 -20 -56 -10 -56 4 0 14 18 20 40 7 22 15 40
19 40 4 0 12 18 18 40 9 36 8 39 -5 28 -14 -11 -15 -10 -10 12 4 14 4 19 1 12
-10 -21 -24 -3 -24 31 0 21 -3 28 -9 19 -4 -8 -11 -13 -15 -13 -21 3 -28 -1
-23 -13 3 -7 0 -19 -6 -26 -9 -10 -9 -11 3 -6 8 4 3 -3 -12 -16 -29 -25 -88
-36 -88 -18 0 6 -4 9 -9 6 -5 -3 -14 1 -20 8 -9 11 -9 16 2 23 8 4 22 22 31
40 9 18 23 36 32 41 18 10 61 4 70 -9 7 -12 24 -11 24 2 0 5 -4 7 -10 4 -5 -3
-10 -2 -10 3 0 5 12 9 28 10 15 0 42 2 60 5 17 2 32 0 32 -4 0 -19 42 7 62 40
12 20 29 41 38 48 8 7 11 13 6 13 -6 0 -2 6 8 13 39 28 20 97 -36 141 -33 24
-79 41 -89 32z m14 -45 c-3 -10 0 -22 6 -25 5 -4 8 -13 5 -20 -4 -11 49 -46
70 -46 9 0 3 61 -6 66 -11 7 -10 24 0 24 15 0 32 -50 26 -76 -6 -23 -10 -24
-57 -20 -27 3 -55 10 -60 15 -16 16 -54 13 -82 -5 -22 -14 -24 -14 -34 4 -11
21 2 42 27 42 7 0 11 4 7 9 -9 15 45 51 75 51 23 0 27 -4 23 -19z m-343 -99
c-14 -2 -29 -8 -34 -13 -15 -14 -36 -11 -30 5 3 8 12 12 20 9 8 -3 14 -1 14 5
0 5 12 7 28 3 l27 -5 -25 -4z m157 -40 c-9 -11 -12 -11 -18 5 -7 17 -8 17 -8
0 -1 -21 -21 -13 -21 8 0 17 31 24 46 10 9 -7 9 -14 1 -23z m203 24 c39 -16
25 -28 -24 -20 -33 5 -52 -9 -24 -18 6 -2 8 -9 5 -15 -10 -17 -44 -4 -50 18
-4 16 1 21 26 26 27 5 28 7 12 14 -19 7 -19 8 1 8 12 1 36 -5 54 -13z m-169
-39 c-10 -9 -11 -8 -5 6 3 10 9 15 12 12 3 -3 0 -11 -7 -18z m202 1 c-6 -7
-12 -20 -15 -28 -3 -9 -7 -10 -11 -3 -4 6 0 19 9 27 18 19 31 21 17 4z m-253
-29 c0 -6 -4 -7 -10 -4 -5 3 -10 11 -10 16 0 6 5 7 10 4 6 -3 10 -11 10 -16z
m230 -31 c0 -9 -13 -4 -37 14 -6 5 -9 17 -6 25 5 14 9 13 25 -7 10 -12 18 -26
18 -32z m-40 -5 c0 -18 -19 -16 -27 3 -3 8 -12 13 -19 10 -14 -5 -28 7 -18 17
9 9 64 -17 64 -30z m-210 -298 c-7 -14 -17 -25 -22 -25 -5 0 -1 13 8 30 21 35
33 31 14 -5z"/>
<path d="M1318 1613 c7 -3 16 -2 19 1 4 3 -2 6 -13 5 -11 0 -14 -3 -6 -6z"/>
<path d="M871 1504 c0 -11 3 -14 6 -6 3 7 2 16 -1 19 -3 4 -6 -2 -5 -13z"/>
<path d="M827 1433 c-16 -26 -30 -58 -32 -72 -5 -44 -17 -81 -24 -81 -10 0
-13 -29 -9 -117 0 -22 -8 -56 -21 -81 -33 -64 -32 -182 1 -182 13 0 9 -17 -4
-18 -7 -1 -51 -4 -97 -7 -46 -2 -90 -10 -97 -16 -18 -14 -19 -136 -2 -176 6
-15 10 -33 9 -40 -1 -7 8 -10 21 -7 l23 5 -22 -12 c-13 -7 -23 -16 -23 -21 0
-5 4 -7 9 -4 4 3 7 -6 5 -19 -1 -15 5 -30 16 -38 13 -9 16 -17 9 -27 -5 -8 -9
-10 -9 -5 0 6 -13 -14 -28 -43 -16 -30 -42 -61 -60 -72 -66 -40 -26 -99 68
-103 28 0 50 -6 50 -12 0 -6 21 -12 48 -12 26 -1 62 -4 80 -6 24 -3 30 -2 23
7 -7 8 -4 12 8 12 10 0 17 -5 15 -11 -2 -5 6 -10 18 -11 13 -1 38 -5 57 -9 27
-6 32 -5 26 5 -5 9 -4 11 4 6 12 -8 54 -8 156 -2 59 4 199 36 191 43 -3 4 2
12 12 19 16 12 16 14 0 46 -10 18 -19 53 -21 77 -4 39 0 48 30 82 18 20 68 55
111 77 108 57 113 61 205 170 44 53 64 92 46 92 -5 0 -9 -4 -9 -10 0 -5 -4
-10 -10 -10 -5 0 -10 7 -10 15 0 8 -9 15 -20 15 -17 0 -18 3 -9 19 7 10 9 25
6 34 -8 21 -87 43 -97 27 -4 -7 -13 -2 -23 14 -22 33 -66 76 -77 76 -9 0 -1
-11 48 -63 14 -15 14 -18 2 -15 -10 2 -14 -4 -13 -19 4 -31 -25 -30 -33 1 -6
24 -34 45 -34 26 0 -6 5 -10 11 -10 5 0 7 -5 3 -11 -4 -7 -22 4 -47 28 -22 21
-37 31 -34 22 4 -12 -1 -16 -16 -15 -33 2 -36 -19 -4 -22 24 -3 67 -32 67 -46
0 -5 -53 -20 -62 -18 -5 1 -8 -2 -8 -8 0 -5 5 -10 10 -10 6 0 10 -7 10 -16 0
-9 -5 -14 -11 -12 -6 2 -25 -9 -42 -24 -19 -18 -36 -26 -47 -23 -10 3 -21 1
-25 -5 -3 -6 -11 -7 -17 -4 -6 4 -8 2 -4 -4 3 -5 3 -12 -1 -15 -5 -2 -2 -2 5
-1 6 2 12 -2 12 -9 0 -22 -66 -47 -105 -41 -26 4 -34 2 -32 -8 2 -7 2 -9 -1
-5 -2 4 -11 2 -20 -5 -14 -12 -14 -10 -1 12 8 14 23 36 34 50 20 24 20 24 0
10 -19 -15 -19 -15 -2 13 14 21 15 28 5 31 -22 8 -147 2 -142 -5 2 -5 -11 -5
-31 -2 -26 4 -36 2 -41 -11 -3 -9 -10 -13 -15 -10 -5 3 -9 0 -9 -5 0 -14 -45
-14 -71 -1 -36 20 -21 32 36 29 33 -2 60 2 67 9 7 7 26 12 43 12 17 0 36 5 42
11 7 7 20 8 30 4 10 -4 37 -8 61 -9 25 -1 47 -8 52 -16 8 -12 10 -10 10 7 0
11 14 33 30 46 17 14 30 31 30 37 0 6 5 8 13 3 16 -10 57 -12 62 -2 13 20 -96
29 -119 10 -9 -8 -16 -10 -16 -5 0 5 -7 0 -15 -10 -16 -21 -18 -16 -15 22 1
14 -3 21 -11 20 -7 -2 -14 4 -14 12 -1 9 0 10 2 2 4 -10 8 -11 19 -1 12 10 14
10 12 -1 -2 -7 3 -15 10 -17 6 -3 12 0 12 7 0 6 5 8 11 4 7 -4 10 -1 7 6 -6
19 -68 28 -107 16 -16 -6 -21 -5 -17 3 4 6 3 11 -3 11 -5 0 -12 -6 -14 -12 -4
-10 -6 -10 -6 -1 -1 19 15 24 86 24 43 0 79 -5 98 -15 35 -18 55 -20 55 -6 0
6 -6 10 -12 10 -9 0 -8 4 2 10 12 8 11 10 -7 10 -13 0 -23 5 -23 10 0 14 -28
12 -33 -2 -3 -10 -10 -10 -30 1 -15 8 -27 19 -27 25 0 6 5 5 12 -2 20 -20 40
-15 29 7 -10 18 -71 47 -71 34 0 -3 -8 1 -18 10 -15 13 -21 14 -32 4 -10 -9
-11 -9 -6 1 4 6 3 12 -1 12 -5 0 -9 12 -10 28 -4 76 -22 136 -24 81 -1 -18 -3
-19 -6 -6 -3 10 1 24 7 32 7 8 8 20 3 27 -14 23 -31 78 -23 78 4 0 7 12 5 28
-3 29 -25 82 -34 82 -3 0 -19 -22 -34 -47z m-1 -167 c9 -19 9 -23 -1 -19 -14
5 -28 43 -17 43 4 0 12 -11 18 -24z m-16 -58 c0 -9 6 -18 13 -21 6 -2 9 -7 6
-11 -12 -12 -39 25 -39 52 0 21 2 24 10 12 5 -8 10 -22 10 -32z m55 -16 c2
-28 0 -28 -25 8 l-21 30 22 -8 c13 -5 23 -18 24 -30z m5 -52 c0 -5 -2 -10 -4
-10 -3 0 -8 5 -11 10 -3 6 -1 10 4 10 6 0 11 -4 11 -10z m-10 -28 c8 -2 17 -8
18 -13 2 -5 12 -9 22 -9 10 0 21 -4 25 -9 5 -9 -95 -5 -103 4 -2 2 -1 13 3 26
4 12 10 18 14 13 3 -5 13 -10 21 -12z m59 -9 c2 -2 -3 -3 -11 -3 -9 0 -19 7
-22 16 -6 15 -4 15 11 3 10 -7 20 -15 22 -16z m87 -18 c10 -8 14 -15 7 -15 -6
0 -15 5 -18 10 -4 6 -11 8 -16 5 -5 -4 -9 -1 -9 4 0 15 13 14 36 -4z m104 -55
c0 -5 -5 -10 -11 -10 -5 0 -7 5 -4 10 3 6 8 10 11 10 2 0 4 -4 4 -10z m-266
-58 c3 -5 -1 -9 -9 -9 -8 0 -15 4 -15 9 0 4 4 8 9 8 6 0 12 -4 15 -8z m101
-22 c-3 -5 -2 -10 4 -10 6 0 8 -7 4 -16 -4 -10 -9 -12 -16 -5 -9 9 -3 41 8 41
4 0 3 -4 0 -10z m59 1 c9 -14 -3 -38 -19 -38 -8 0 -15 8 -15 17 0 27 22 41 34
21z m490 -27 c3 -8 2 -12 -4 -9 -6 3 -10 10 -10 16 0 14 7 11 14 -7z m56 6 c0
-5 -2 -10 -4 -10 -2 0 -11 -3 -19 -6 -8 -3 -17 2 -20 10 -5 12 0 16 18 16 14
0 25 -4 25 -10z m-132 -45 c-3 -30 -14 -33 -21 -5 -3 11 -1 18 4 14 5 -3 9 0
9 5 0 6 2 11 5 11 3 0 4 -11 3 -25z m54 10 c3 0 10 -3 13 -7 4 -4 -5 -5 -20
-2 -19 3 -24 1 -19 -7 4 -8 3 -9 -4 -5 -6 4 -9 13 -6 21 4 8 11 12 18 8 6 -4
14 -8 18 -8z m-802 -45 c0 -5 -2 -10 -4 -10 -3 0 -8 5 -11 10 -3 6 -1 10 4 10
6 0 11 -4 11 -10z m683 -50 c-45 -27 -69 -53 -93 -101 -38 -73 -189 -204 -206
-178 -3 6 -2 22 2 37 11 40 11 41 13 50 0 5 15 24 31 42 17 18 30 41 30 51 0
18 98 89 122 89 8 0 18 4 24 9 8 8 28 13 94 19 8 1 1 -7 -17 -18z m-183 6 c0
-3 -4 -8 -10 -11 -5 -3 -10 -1 -10 4 0 6 5 11 10 11 6 0 10 -2 10 -4z m-325
-44 c-3 -3 -11 0 -18 7 -9 10 -8 11 6 5 10 -3 15 -9 12 -12z m-188 2 c-3 -3
-12 -4 -19 -1 -8 3 -5 6 6 6 11 1 17 -2 13 -5z m240 0 c-3 -3 -12 -4 -19 -1
-8 3 -5 6 6 6 11 1 17 -2 13 -5z m-32 -24 c3 -5 -1 -10 -9 -10 -9 0 -16 5 -16
10 0 6 4 10 9 10 6 0 13 -4 16 -10z m-100 -29 c3 -5 1 -12 -5 -16 -5 -3 -10 1
-10 9 0 18 6 21 15 7z m42 -5 c4 -7 15 -15 23 -18 11 -4 8 -8 -10 -16 -34 -14
-94 -78 -86 -91 4 -6 3 -11 -3 -11 -16 0 -23 37 -10 57 6 11 24 25 40 32 24
10 28 17 23 37 -7 26 9 33 23 10z m147 -102 c23 -9 20 -27 -3 -21 -15 3 -18
-1 -17 -19 0 -13 7 -26 14 -29 6 -2 12 -10 12 -17 0 -9 -3 -9 -12 0 -9 9 -16
8 -30 -5 -19 -17 -26 -49 -8 -38 6 3 10 1 10 -5 0 -19 -44 -6 -66 20 -29 34
-47 70 -39 78 3 4 9 1 14 -6 5 -9 13 -7 31 6 14 9 36 22 50 29 14 6 26 12 27
12 1 1 8 -2 17 -5z m259 -50 c12 -4 12 -11 0 -46 -7 -22 -15 -61 -17 -86 -3
-41 -1 -45 25 -56 34 -12 37 -22 9 -29 -11 -3 -20 0 -20 5 0 6 -10 3 -22 -8
l-21 -19 6 31 c4 23 1 33 -13 42 -17 10 -18 9 -13 -6 5 -13 3 -14 -6 -6 -18
16 -23 104 -7 104 8 0 12 -13 11 -34 0 -19 3 -32 7 -30 14 9 2 64 -18 79 -16
13 -16 14 -1 9 10 -4 17 -1 17 6 0 7 10 21 22 31 24 22 22 21 41 13z m-232
-94 c0 8 4 4 8 -10 4 -16 15 -26 31 -28 14 -2 32 -10 41 -18 9 -8 23 -14 30
-12 20 4 23 -37 3 -53 -15 -12 -16 -12 -10 8 4 12 2 24 -4 28 -6 4 -10 3 -9
-2 5 -29 -4 -33 -16 -8 -7 17 -14 23 -15 15 -1 -9 -6 -4 -12 10 -10 24 -10 24
-18 5 -8 -19 -9 -19 -9 1 -1 12 -8 25 -17 28 -13 5 -14 3 -6 -6 7 -9 7 -20 -2
-36 -11 -20 -14 -21 -25 -8 -7 8 -18 13 -25 10 -7 -3 -20 6 -30 20 -27 42 -18
46 21 10 41 -37 53 -42 53 -19 0 8 -6 15 -14 15 -8 0 -18 4 -21 10 -4 6 1 7
12 4 17 -5 17 -5 0 9 -17 14 -17 15 0 21 11 5 14 10 7 14 -6 4 -15 18 -18 32
-5 18 0 13 18 -15 14 -22 26 -33 27 -25z m-232 -28 c5 -17 7 -33 3 -36 -10
-11 -31 31 -25 53 7 26 11 23 22 -17z m45 8 c-6 -6 -10 -3 -10 10 0 13 4 16
10 10 7 -7 7 -13 0 -20z m-89 -10 c3 -5 1 -10 -4 -10 -6 0 -11 5 -11 10 0 6 2
10 4 10 3 0 8 -4 11 -10z m158 -43 c6 3 7 1 3 -5 -4 -7 -1 -12 6 -12 10 0 10
-2 1 -8 -7 -4 -11 -21 -10 -37 1 -16 -4 -30 -11 -33 -9 -3 -11 4 -7 25 5 24 4
26 -7 13 -18 -20 -98 -15 -98 6 0 9 -7 22 -15 31 -8 8 -12 19 -9 25 4 6 12 2
18 -11 7 -12 22 -29 35 -38 22 -15 25 -15 37 1 9 13 10 25 3 43 -15 40 -10 45
18 19 15 -14 31 -22 36 -19z m-240 -2 c18 -25 15 -51 -5 -39 -6 4 -8 -2 -3
-17 5 -19 4 -21 -4 -9 -16 22 -13 43 4 36 21 -8 19 4 -7 31 -12 13 -17 23 -12
23 5 0 17 -12 27 -25z m74 -36 c-3 -11 0 -19 6 -20 8 0 8 -2 -1 -6 -6 -2 -10
-9 -7 -13 3 -5 12 -7 19 -4 8 3 17 1 21 -5 4 -7 0 -8 -11 -4 -10 4 -15 2 -11
-4 7 -11 -22 -11 -42 1 -8 5 -9 11 -3 15 5 3 12 17 16 31 7 24 6 24 -8 6 -19
-23 -21 -14 -4 13 14 24 32 16 25 -10z m-197 -5 c0 -14 -4 -23 -9 -20 -7 5 -8
23 -2 44 4 12 11 -3 11 -24z m422 1 c3 3 11 -1 18 -10 10 -12 10 -15 -3 -15
-27 0 -47 12 -47 27 0 12 3 13 13 4 8 -6 16 -9 19 -6z m148 -27 c0 -4 -6 -8
-14 -8 -8 0 -17 4 -20 8 -2 4 4 8 15 8 10 0 19 -4 19 -8z"/>
<path d="M875 560 c-3 -5 -5 -10 -3 -11 33 -8 38 -7 27 7 -14 17 -16 17 -24 4z"/>
<path d="M840 537 c0 -5 9 -21 20 -35 21 -26 21 -26 27 -4 3 12 9 19 14 16 5
-3 9 0 9 6 0 6 -10 8 -26 4 -17 -4 -29 -2 -35 7 -5 8 -9 10 -9 6z"/>
<path d="M1115 1460 c3 -5 8 -10 11 -10 2 0 4 5 4 10 0 6 -5 10 -11 10 -5 0
-7 -4 -4 -10z"/>
<path d="M907 1403 c-7 -11 18 -51 26 -43 3 3 0 16 -7 29 -7 13 -16 19 -19 14z"/>
<path d="M1367 1385 c3 -8 9 -12 14 -9 12 7 11 11 -5 17 -10 4 -13 1 -9 -8z"/>
<path d="M940 1380 c1 -30 72 -38 78 -9 2 13 -6 16 -38 15 -22 -1 -40 -3 -40
-6z"/>
<path d="M970 1167 c0 -12 19 -27 40 -31 3 -1 11 -5 18 -9 26 -17 10 2 -23 27
-25 19 -35 23 -35 13z"/>
<path d="M1052 1158 c2 -6 10 -14 16 -16 7 -2 10 2 6 12 -7 18 -28 22 -22 4z"/>
<path d="M1316 1015 c27 -20 51 -20 34 0 -7 8 -22 15 -33 15 -20 0 -20 0 -1
-15z"/>
<path d="M1170 1005 c0 -8 4 -15 8 -15 5 0 9 7 9 15 0 8 -4 15 -9 15 -4 0 -8
-7 -8 -15z"/>
<path d="M1180 899 c0 -19 37 -55 47 -45 4 3 -5 19 -20 34 -20 19 -27 22 -27
11z"/>
<path d="M1091 884 c0 -11 3 -14 6 -6 3 7 2 16 -1 19 -3 4 -6 -2 -5 -13z"/>
<path d="M1127 883 c-11 -10 -8 -43 3 -43 6 0 10 4 10 10 0 5 7 7 15 4 9 -4
15 0 15 9 0 8 -7 18 -16 21 -19 7 -19 7 -27 -1z"/>
<path d="M1100 830 c0 -5 5 -10 11 -10 5 0 7 5 4 10 -3 6 -8 10 -11 10 -2 0
-4 -4 -4 -10z"/>
<path d="M1076 812 c-3 -5 1 -9 9 -9 8 0 12 4 9 9 -3 4 -7 8 -9 8 -2 0 -6 -4
-9 -8z"/>
<path d="M1069 771 c-28 -23 -24 -32 9 -20 12 5 22 15 22 24 0 19 -3 19 -31
-4z"/>
</g>
</svg>
